<svg width="129" height="128" viewBox="0 0 129 128" fill="none" xmlns="http://www.w3.org/2000/svg">
<path d="M57.5853 66.9996L34.8726 58.7663C32.4092 66.7029 30.9729 74.9204 30.5986 83.2195L49.1971 89.951L57.5853 66.9996ZM25.7481 55.4467L2.32684 46.9665C0.0272723 55.2113 -0.575972 63.8341 0.553341 72.317L21.5111 79.9137C21.8746 71.6118 23.2984 63.3899 25.7481 55.4467ZM90.1126 78.8017L66.8626 70.3746L58.4767 93.3237L77.5731 100.244C82.643 93.6527 86.8548 86.4479 90.1079 78.8017H90.1126ZM86.7577 103.587L107.678 111.165C114.009 105.383 119.104 98.3895 122.661 90.6015L99.2393 82.1052C96.0081 89.7634 91.814 96.9817 86.7577 103.587ZM68.7611 0.154812C55.1732 -0.787478 41.6356 2.58956 30.0962 9.79997L48.5002 16.4785C54.5078 10.1772 61.3197 4.68911 68.7611 0.154812ZM57.6965 19.8165L72.8198 25.3001L81.2242 2.29793C80.958 2.22641 80.7102 2.15721 80.4625 2.08569C72.0433 6.85223 64.3727 12.8279 57.6965 19.8165ZM91.8096 6.20582C91.3836 5.99358 90.9576 5.7998 90.5154 5.60602L82.0948 28.6612L97.7854 34.35C97.1822 24.7306 95.169 15.251 91.8096 6.21274V6.20582ZM125.381 44.3458C121.158 31.3367 112.874 20.0121 101.738 12.0238C104.567 20.2973 106.283 28.9077 106.843 37.6305L125.381 44.3458ZM59.7015 127.842C73.2728 128.793 86.7976 125.435 98.3341 118.25L79.9138 111.578C73.9266 117.865 67.1301 123.334 59.7015 127.842ZM70.7291 108.249L55.108 102.581L46.7036 125.563C47.1296 125.687 47.5718 125.793 47.9978 125.916C56.3977 121.161 64.0556 115.209 70.7291 108.249ZM36.6507 121.782C36.9169 121.906 37.1647 122.028 37.4309 122.153L45.8168 99.204L30.6935 93.7274C31.2899 103.319 33.2971 112.771 36.6507 121.782ZM3.14181 83.7178C7.36091 96.6957 15.629 107.992 26.7413 115.961C23.9017 107.712 22.1847 99.1208 21.6362 90.417L3.14181 83.7178ZM20.7379 16.8868C14.3554 22.7336 9.23498 29.8144 5.68861 37.6973L29.1075 46.1891C32.3459 38.4446 36.5705 31.1472 41.6771 24.4765L20.7379 16.8868ZM50.8363 27.7869C45.7193 34.4657 41.4826 41.7704 38.2297 49.5225L60.9587 57.7559L69.4326 34.56L50.8363 27.7869ZM97.8363 44.8349L78.7052 37.9142L70.2313 61.117L93.4952 69.5441C96.0047 61.5318 97.4699 53.2312 97.8548 44.8464L97.8363 44.8349ZM127.935 55.7535L106.942 48.1407C106.567 56.5239 105.113 64.8244 102.615 72.8384L126.064 81.3578C128.432 73.0432 129.072 64.3345 127.944 55.765L127.935 55.7535Z" fill="black"/>
</svg>
