<svg width="69" height="69" viewBox="0 0 69 69" fill="none" xmlns="http://www.w3.org/2000/svg">
<rect width="69" height="69" rx="8" fill="#333333"/>
<g clip-path="url(#clip0_1426_214)">
<path d="M58.4371 21.5677C58.1279 20.3531 56.9134 19.6464 55.6988 19.9114C50.4429 21.0818 44.5909 21.5897 39.1142 21.5897C33.6375 21.5897 27.7854 21.0818 22.5296 19.9114C21.315 19.6464 20.1004 20.3531 19.7913 21.5677C19.4821 22.8043 20.2329 24.0631 21.4475 24.3502C25.0029 25.1452 28.8454 25.6972 32.4892 26.0064V52.5064C32.4892 53.721 33.4829 54.7148 34.6975 54.7148C35.9121 54.7148 36.9059 53.721 36.9059 52.5064V41.4647H41.3225V52.5064C41.3225 53.721 42.3163 54.7148 43.5309 54.7148C44.7454 54.7148 45.7392 53.721 45.7392 52.5064V26.0064C49.3829 25.6972 53.2254 25.1452 56.7588 24.3502C57.9954 24.0631 58.7463 22.8043 58.4371 21.5677ZM39.1142 19.3814C41.5434 19.3814 43.5309 17.3939 43.5309 14.9647C43.5309 12.5356 41.5434 10.5481 39.1142 10.5481C36.685 10.5481 34.6975 12.5356 34.6975 14.9647C34.6975 17.3939 36.685 19.3814 39.1142 19.3814Z" fill="#83808C"/>
<path d="M50.2828 25.6446C49.9737 24.43 48.7591 23.7233 47.5445 23.9883C42.2887 25.1588 36.4366 25.6667 30.9599 25.6667C25.4832 25.6667 19.6312 25.1588 14.3753 23.9883C13.1607 23.7233 11.9462 24.43 11.637 25.6446C11.3278 26.8813 12.0787 28.14 13.2932 28.4271C16.8487 29.2221 20.6912 29.7742 24.3349 30.0833V56.5833C24.3349 57.7979 25.3287 58.7917 26.5432 58.7917C27.7578 58.7917 28.7516 57.7979 28.7516 56.5833V45.5417H33.1682V56.5833C33.1682 57.7979 34.162 58.7917 35.3766 58.7917C36.5912 58.7917 37.5849 57.7979 37.5849 56.5833V30.0833C41.2287 29.7742 45.0712 29.2221 48.6045 28.4271C49.8412 28.14 50.592 26.8813 50.2828 25.6446ZM30.9599 23.4583C33.3891 23.4583 35.3766 21.4708 35.3766 19.0417C35.3766 16.6125 33.3891 14.625 30.9599 14.625C28.5307 14.625 26.5432 16.6125 26.5432 19.0417C26.5432 21.4708 28.5307 23.4583 30.9599 23.4583Z" fill="white"/>
</g>
<defs>
<clipPath id="clip0_1426_214">
<rect width="53" height="53" fill="white" transform="translate(8 8)"/>
</clipPath>
</defs>
</svg>
