<svg width="69" height="69" viewBox="0 0 69 69" fill="none" xmlns="http://www.w3.org/2000/svg">
<rect width="69" height="69" rx="8" fill="#333333"/>
<path d="M36.9535 57.7284C43.331 57.7284 49.4473 55.1777 53.9568 50.6375C58.4664 46.0973 60.9998 39.9394 60.9998 33.5185C60.9998 27.0977 58.4664 20.9398 53.9568 16.3996C49.4473 11.8593 43.331 9.30864 36.9535 9.30864C30.576 9.30864 24.4598 11.8593 19.9502 16.3996C15.4407 20.9398 12.9072 27.0977 12.9072 33.5185C12.9072 39.9394 15.4407 46.0973 19.9502 50.6375C24.4598 55.1777 30.576 57.7284 36.9535 57.7284ZM31.637 38.8712C34.5677 41.8218 39.33 41.8218 42.2606 38.8712C43.1436 37.9822 44.5713 37.9822 45.4449 38.8712C46.3184 39.7601 46.3278 41.1976 45.4449 42.0771C40.7483 46.8056 33.1399 46.8056 28.4434 42.0771C23.7468 37.3486 23.7468 29.6884 28.4434 24.96C33.1399 20.2315 40.7483 20.2315 45.4449 24.96C46.3278 25.8489 46.3278 27.2864 45.4449 28.1659C44.5619 29.0454 43.1342 29.0548 42.2606 28.1659C39.33 25.2153 34.5677 25.2153 31.637 28.1659C28.7064 31.1164 28.7064 35.9111 31.637 38.8617V38.8712Z" fill="#83808C"/>
<path d="M32.0463 60.0185C38.4238 60.0185 44.54 57.4851 49.0496 52.9755C53.5592 48.466 56.0926 42.3497 56.0926 35.9722C56.0926 29.5947 53.5592 23.4785 49.0496 18.9689C44.54 14.4594 38.4238 11.9259 32.0463 11.9259C25.6688 11.9259 19.5526 14.4594 15.043 18.9689C10.5334 23.4785 8 29.5947 8 35.9722C8 42.3497 10.5334 48.466 15.043 52.9755C19.5526 57.4851 25.6688 60.0185 32.0463 60.0185ZM26.7298 41.2887C29.6605 44.2194 34.4227 44.2194 37.3534 41.2887C38.2363 40.4058 39.6641 40.4058 40.5376 41.2887C41.4112 42.1717 41.4206 43.5994 40.5376 44.473C35.8411 49.1695 28.2327 49.1695 23.5362 44.473C18.8396 39.7764 18.8396 32.168 23.5362 27.4715C28.2327 22.7749 35.8411 22.7749 40.5376 27.4715C41.4206 28.3544 41.4206 29.7822 40.5376 30.6557C39.6547 31.5293 38.2269 31.5387 37.3534 30.6557C34.4227 27.7251 29.6605 27.7251 26.7298 30.6557C23.7992 33.5864 23.7992 38.3487 26.7298 41.2793V41.2887Z" fill="white"/>
</svg>
