<svg width="69" height="69" viewBox="0 0 69 69" fill="none" xmlns="http://www.w3.org/2000/svg">
<rect width="69" height="69" rx="8" fill="#333333"/>
<g clip-path="url(#clip0_1426_341)">
<path d="M56.4547 28.5838L59.3208 25.7177C61.4298 23.6087 61.4298 20.1748 59.3208 18.0658L55.5083 14.2533C53.3993 12.1443 49.9654 12.1443 47.8564 14.2533L44.9904 17.1194L56.4547 28.5838ZM41.1509 20.9319L16.681 45.4017C16.4377 45.6451 16.3025 45.9966 16.3025 46.3481V55.9197C16.3025 56.6768 16.8973 57.2716 17.6544 57.2716H27.226C27.5775 57.2716 27.9291 57.1365 28.1724 56.8661L52.6423 32.3962L41.1509 20.9319ZM56.8603 47.8082C56.8603 53.7296 49.9925 57.2716 43.341 57.2716C41.8539 57.2716 40.6372 56.0549 40.6372 54.5678C40.6372 53.0807 41.8539 51.8639 43.341 51.8639C47.5049 51.8639 51.4526 49.8901 51.4526 47.8082C51.4526 46.5373 50.1547 45.4558 48.1268 44.5635L52.1285 40.5618C55.0217 42.2653 56.8603 44.5365 56.8603 47.8082ZM17.8707 36.5872C15.248 35.073 13.5986 33.0992 13.5986 30.2331C13.5986 25.3662 18.7089 23.122 23.2243 21.1482C26.0093 19.9044 29.8217 18.228 29.8217 16.7139C29.8217 15.6053 27.7127 14.01 24.414 14.01C21.0072 14.01 19.5471 15.6593 19.466 15.7405C18.5196 16.849 16.8162 16.9842 15.6806 16.0649C14.572 15.1456 14.3557 13.4963 15.275 12.3336C15.5724 11.9551 18.3574 8.60229 24.414 8.60229C30.4707 8.60229 35.2295 12.1714 35.2295 16.7139C35.2295 21.7701 30.011 24.0683 25.3874 26.0962C22.8458 27.2048 19.0063 28.8812 19.0063 30.2331C19.0063 31.0713 20.169 31.8554 21.8995 32.5584L17.8707 36.5872Z" fill="#83808C"/>
<path d="M50.5553 31.5334L53.4214 28.6674C55.5304 26.5584 55.5304 23.1245 53.4214 21.0155L49.6089 17.203C47.4999 15.094 44.066 15.094 41.957 17.203L39.0909 20.0691L50.5553 31.5334ZM35.2515 23.8815L10.7816 48.3514C10.5383 48.5948 10.4031 48.9463 10.4031 49.2978V58.8694C10.4031 59.6265 10.9979 60.2213 11.755 60.2213H21.3266C21.6781 60.2213 22.0296 60.0861 22.273 59.8157L46.7428 35.3459L35.2515 23.8815ZM50.9609 50.7578C50.9609 56.6793 44.0931 60.2213 37.4416 60.2213C35.9545 60.2213 34.7377 59.0046 34.7377 57.5175C34.7377 56.0303 35.9545 54.8136 37.4416 54.8136C41.6055 54.8136 45.5532 52.8398 45.5532 50.7578C45.5532 49.487 44.2553 48.4055 42.2274 47.5132L46.2291 43.5115C49.1222 45.2149 50.9609 47.4862 50.9609 50.7578ZM11.9713 39.5368C9.34857 38.0227 7.69922 36.0489 7.69922 33.1828C7.69922 28.3159 12.8095 26.0717 17.3249 24.0978C20.1099 22.8541 23.9223 21.1777 23.9223 19.6635C23.9223 18.5549 21.8133 16.9597 18.5146 16.9597C15.1078 16.9597 13.6477 18.609 13.5666 18.6901C12.6202 19.7987 10.9168 19.9339 9.78119 19.0146C8.67261 18.0953 8.4563 16.4459 9.37561 15.2833C9.67303 14.9047 12.458 11.552 18.5146 11.552C24.5713 11.552 29.33 15.1211 29.33 19.6635C29.33 24.7197 24.1116 27.018 19.488 29.0459C16.9464 30.1545 13.1069 31.8309 13.1069 33.1828C13.1069 34.021 14.2696 34.8051 16 35.5081L11.9713 39.5368Z" fill="white"/>
</g>
<defs>
<clipPath id="clip0_1426_341">
<rect width="53" height="53" fill="white" transform="translate(8 8)"/>
</clipPath>
</defs>
</svg>
