<svg width="69" height="69" viewBox="0 0 69 69" fill="none" xmlns="http://www.w3.org/2000/svg">
<rect width="69" height="69" rx="8" fill="#333333"/>
<path d="M42.0985 13.893C40.7991 13.5175 39.4462 14.2762 39.0717 15.579L29.2878 49.9117C28.9132 51.2145 29.67 52.571 30.9694 52.9465C32.2688 53.322 33.6217 52.5633 33.9963 51.2605L43.7801 16.9278C44.1547 15.625 43.398 14.2685 42.0985 13.893ZM48.2593 23.0969C47.3039 24.0549 47.3039 25.6106 48.2593 26.5685L55.0851 33.4197L48.2517 40.271C47.2962 41.2289 47.2962 42.7846 48.2517 43.7426C49.2071 44.7005 50.7588 44.7005 51.7143 43.7426L60.2752 35.1594C61.2306 34.2014 61.2306 32.6457 60.2752 31.6878L51.7143 23.1046C50.7588 22.1466 49.2071 22.1466 48.2517 23.1046L48.2593 23.0969ZM24.8162 23.0969C23.8608 22.139 22.3091 22.139 21.3537 23.0969L12.7928 31.6801C11.8373 32.6381 11.8373 34.1938 12.7928 35.1517L21.3537 43.7349C22.3091 44.6928 23.8608 44.6928 24.8162 43.7349C25.7717 42.7769 25.7717 41.2212 24.8162 40.2633L17.9828 33.4197L24.8162 26.5685C25.7717 25.6106 25.7717 24.0549 24.8162 23.0969Z" fill="#83808C"/>
<path d="M38.0224 15.9313C36.7229 15.5558 35.37 16.3145 34.9955 17.6173L25.2116 51.95C24.8371 53.2528 25.5938 54.6093 26.8932 54.9848C28.1926 55.3603 29.5456 54.6016 29.9201 53.2988L39.704 18.9661C40.0785 17.6632 39.3218 16.3068 38.0224 15.9313ZM44.1832 25.1352C43.2277 26.0932 43.2277 27.6489 44.1832 28.6068L51.0089 35.458L44.1755 42.3093C43.2201 43.2672 43.2201 44.8229 44.1755 45.7809C45.131 46.7388 46.6826 46.7388 47.6381 45.7809L56.199 37.1977C57.1544 36.2397 57.1544 34.684 56.199 33.7261L47.6381 25.1429C46.6826 24.1849 45.131 24.1849 44.1755 25.1429L44.1832 25.1352ZM20.7401 25.1352C19.7846 24.1773 18.2329 24.1773 17.2775 25.1352L8.71659 33.7184C7.76114 34.6764 7.76114 36.2321 8.71659 37.19L17.2775 45.7732C18.2329 46.7311 19.7846 46.7311 20.7401 45.7732C21.6955 44.8152 21.6955 43.2595 20.7401 42.3016L13.9066 35.458L20.7401 28.6068C21.6955 27.6489 21.6955 26.0932 20.7401 25.1352Z" fill="white"/>
</svg>
