<svg width="69" height="69" viewBox="0 0 69 69" fill="none" xmlns="http://www.w3.org/2000/svg">
<rect width="69" height="69" rx="8" fill="#333333"/>
<g clip-path="url(#clip0_1426_172)">
<path d="M37.9789 19.6228C29.0978 19.6228 21.5133 25.1172 18.4404 32.873C21.5133 40.6289 29.0978 46.1233 37.9789 46.1233C46.8601 46.1233 54.4445 40.6289 57.5174 32.873C54.4445 25.1172 46.8601 19.6228 37.9789 19.6228ZM37.9789 41.7065C33.0765 41.7065 29.0978 37.7491 29.0978 32.873C29.0978 27.997 33.0765 24.0396 37.9789 24.0396C42.8813 24.0396 46.8601 27.997 46.8601 32.873C46.8601 37.7491 42.8813 41.7065 37.9789 41.7065ZM37.9789 27.5729C35.0304 27.5729 32.6502 29.9403 32.6502 32.873C32.6502 35.8058 35.0304 38.1731 37.9789 38.1731C40.9275 38.1731 43.3076 35.8058 43.3076 32.873C43.3076 29.9403 40.9275 27.5729 37.9789 27.5729Z" fill="#83808C"/>
<path d="M30.7924 23.2161C21.9113 23.2161 14.3268 28.7105 11.2539 36.4663C14.3268 44.2221 21.9113 49.7166 30.7924 49.7166C39.6735 49.7166 47.258 44.2221 50.3309 36.4663C47.258 28.7105 39.6735 23.2161 30.7924 23.2161ZM30.7924 45.2998C25.89 45.2998 21.9113 41.3424 21.9113 36.4663C21.9113 31.5903 25.89 27.6328 30.7924 27.6328C35.6948 27.6328 39.6735 31.5903 39.6735 36.4663C39.6735 41.3424 35.6948 45.2998 30.7924 45.2998ZM30.7924 31.1662C27.8439 31.1662 25.4637 33.5336 25.4637 36.4663C25.4637 39.3991 27.8439 41.7664 30.7924 41.7664C33.7409 41.7664 36.1211 39.3991 36.1211 36.4663C36.1211 33.5336 33.7409 31.1662 30.7924 31.1662Z" fill="white"/>
</g>
<defs>
<clipPath id="clip0_1426_172">
<rect width="53" height="53" fill="white" transform="translate(8 8)"/>
</clipPath>
</defs>
</svg>
