<svg width="69" height="69" viewBox="0 0 69 69" fill="none" xmlns="http://www.w3.org/2000/svg">
<rect width="69" height="69" rx="8" fill="#333333"/>
<path d="M60.9997 34.1514C60.9997 48.3011 51.2931 58.3709 36.9586 58.3709C23.2152 58.3709 12.1162 47.2911 12.1162 33.5714C12.1162 19.8516 23.2152 8.77184 36.9586 8.77184C43.6501 8.77184 49.2797 11.2218 53.6171 15.2617L46.8555 21.7516C38.0104 13.2318 21.5623 19.6316 21.5623 33.5714C21.5623 42.2212 28.4842 49.2311 36.9586 49.2311C46.7954 49.2311 50.4817 42.1912 51.0627 38.5413H36.9586V30.0114H60.609C60.8394 31.2814 60.9997 32.5014 60.9997 34.1514Z" fill="#83808C"/>
<path d="M56.8835 36.2096C56.8835 50.3593 47.1769 60.4292 32.8424 60.4292C19.099 60.4292 8 49.3494 8 35.6296C8 21.9099 19.099 10.8301 32.8424 10.8301C39.5339 10.8301 45.1635 13.28 49.5009 17.32L42.7393 23.8098C33.8942 15.29 17.4461 21.6899 17.4461 35.6296C17.4461 44.2795 24.368 51.2893 32.8424 51.2893C42.6792 51.2893 46.3655 44.2495 46.9465 40.5995H32.8424V32.0697H56.4928C56.7232 33.3397 56.8835 34.5596 56.8835 36.2096Z" fill="white"/>
</svg>
