<svg width="288" height="49" viewBox="0 0 288 49" fill="none" xmlns="http://www.w3.org/2000/svg">
<g clip-path="url(#clip0_1418_2003)">
<path d="M21.5932 25.6259L13.0764 22.5386C12.1527 25.5146 11.6142 28.596 11.4738 31.708L18.4478 34.2322L21.5932 25.6259ZM9.65495 21.2938L0.872511 18.1139C0.0102265 21.2055 -0.215976 24.4389 0.207491 27.6198L8.06619 30.4684C8.2025 27.3554 8.73639 24.2723 9.65495 21.2938ZM33.7902 30.0514L25.072 26.8915L21.9275 35.4968L29.0881 38.0919C30.9893 35.6202 32.5686 32.9186 33.7884 30.0514H33.7902ZM32.5322 39.3454L40.377 42.187C42.7506 40.0189 44.6613 37.3964 45.995 34.4761L37.2125 31.2902C36.0009 34.1618 34.4282 36.8685 32.5322 39.3454ZM25.7839 0.560614C20.6887 0.207277 15.6124 1.47359 11.2854 4.17733L18.1865 6.68161C20.4392 4.31879 22.9935 2.26087 25.7839 0.560614ZM21.6349 7.93332L27.3058 9.98951L30.4573 1.36423C30.3574 1.33742 30.2645 1.31147 30.1716 1.28465C27.0146 3.07199 24.1383 5.31272 21.6349 7.93332ZM34.4265 2.8296C34.2668 2.75002 34.1071 2.67736 33.9412 2.6047L30.7837 11.2499L36.6673 13.383C36.4411 9.77599 35.6862 6.22135 34.4265 2.8322V2.8296ZM47.0151 17.1313C45.4315 12.2531 42.3253 8.00665 38.1493 5.01123C39.2101 8.11359 39.8538 11.3423 40.0636 14.6131L47.0151 17.1313ZM22.3867 48.4404C27.4757 48.797 32.5471 47.5378 36.8731 44.8436L29.9659 42.3419C27.7208 44.6992 25.1723 46.7499 22.3867 48.4404ZM26.5218 41.0936L20.6643 38.9682L17.5128 47.5857C17.6725 47.6324 17.8384 47.6722 17.9981 47.7181C21.1479 45.9352 24.0194 43.7035 26.5218 41.0936ZM13.7432 46.1679C13.843 46.2146 13.9359 46.2605 14.0358 46.3072L17.1803 37.7018L11.5094 35.6482C11.733 39.2449 12.4857 42.7892 13.7432 46.1679ZM1.17811 31.8948C2.76018 36.7613 5.86052 40.9972 10.0274 43.9854C8.96259 40.8922 8.31874 37.6706 8.11308 34.4069L1.17811 31.8948ZM7.77623 6.83472C5.38297 9.02716 3.46291 11.6823 2.1331 14.6382L10.9147 17.8224C12.129 14.9184 13.7131 12.1821 15.628 9.68069L7.77623 6.83472ZM19.0625 10.922C17.1437 13.4264 15.555 16.1655 14.3353 19.0724L22.8581 22.1597L26.0356 13.4618L19.0625 10.922ZM36.6864 17.3146L29.5127 14.7195L26.3352 23.4201L35.0586 26.58C35.9996 23.5756 36.549 20.463 36.6933 17.319L36.6864 17.3146ZM47.9727 21.4089L40.1009 18.5542C39.9603 21.6978 39.4149 24.8103 38.4783 27.8153L47.2712 31.0099C48.1591 27.8921 48.399 24.6266 47.9761 21.4132L47.9727 21.4089Z" fill="black"/>
<path d="M70.5881 11.1867C70.8578 11.148 71.1325 11.1643 71.3956 11.2347C71.6587 11.305 71.9047 11.4279 72.1187 11.5959C72.3139 11.7814 72.4654 12.0077 72.5623 12.2585C72.6591 12.5094 72.6989 12.7786 72.6787 13.0466C72.7008 13.3142 72.6692 13.5836 72.5859 13.839C72.5026 14.0945 72.3692 14.3308 72.1934 14.5344C71.6915 14.9268 71.0765 15.1485 70.4388 15.1668L69.3188 15.2784C68.7078 15.2968 68.1068 15.4381 67.552 15.6938C66.9972 15.9495 66.4999 16.3142 66.0901 16.7662C65.3859 17.6673 65.0223 18.7866 65.0631 19.9279V27.7392C65.0829 28.0473 65.0331 28.3559 64.9174 28.6423C64.8017 28.9286 64.6231 29.1855 64.3946 29.394C63.9243 29.787 63.3246 29.9925 62.7112 29.971C62.1044 29.9938 61.5114 29.7877 61.0504 29.394C60.827 29.1825 60.653 28.9246 60.5408 28.6386C60.4286 28.3527 60.3808 28.0456 60.401 27.7392V13.3441C60.3822 13.0458 60.4312 12.7471 60.5442 12.4702C60.6572 12.1933 60.8314 11.9453 61.0538 11.7447C61.508 11.366 62.0863 11.1674 62.6782 11.1867C63.2507 11.1604 63.8117 11.3532 64.2461 11.7257C64.4517 11.9247 64.6116 12.1659 64.7147 12.4324C64.8179 12.699 64.8618 12.9847 64.8434 13.2697V14.7576C65.2715 13.72 66.0076 12.8375 66.9531 12.2282C67.8883 11.6325 68.9616 11.2866 70.0698 11.2239L70.5881 11.1867ZM88.7685 24.7678C88.9657 24.7625 89.1613 24.8035 89.3396 24.8875C89.5178 24.9715 89.6738 25.0962 89.7947 25.2514C90.0719 25.6258 90.2102 26.0843 90.1863 26.5489C90.1593 26.9674 90.0157 27.3701 89.7717 27.7118C89.5277 28.0535 89.193 28.3206 88.805 28.4831C87.898 28.9786 86.9327 29.3599 85.9313 29.6181C84.9341 29.8934 83.9049 30.0373 82.8702 30.0463C81.5957 30.1127 80.3208 29.923 79.1215 29.4883C77.9222 29.0536 76.8229 28.3828 75.8892 27.516C75.0072 26.5997 74.3235 25.5127 73.8804 24.3223C73.4373 23.1319 73.2443 21.8635 73.3133 20.5957C73.28 18.8808 73.6643 17.1833 74.4333 15.6486C75.1394 14.2533 76.235 13.0908 77.5882 12.3009C78.9885 11.4958 80.5817 11.0845 82.1982 11.1106C83.7009 11.0743 85.185 11.4467 86.4913 12.1876C87.7138 12.9103 88.6995 13.9711 89.3285 15.2412C90.0298 16.6879 90.3753 18.2802 90.3365 19.8864C90.3365 20.9527 89.8636 21.4859 88.9179 21.4859H77.9051C77.9245 22.8769 78.4407 24.2156 79.361 25.2617C79.848 25.6903 80.4156 26.018 81.0308 26.2259C81.6461 26.4338 82.2967 26.5177 82.9448 26.4728C83.6594 26.4848 84.3714 26.3843 85.0545 26.1752C85.7591 25.9395 86.4506 25.6663 87.126 25.3569C87.6246 25.0444 88.1847 24.842 88.7685 24.7635V24.7678ZM82.3102 14.3874C81.7482 14.3621 81.1872 14.4551 80.6637 14.6601C80.1402 14.8652 79.6658 15.1778 79.2716 15.5777C78.445 16.5337 77.9652 17.7391 77.9094 18.9997H86.342C86.3843 17.7583 85.988 16.5413 85.222 15.5612C84.8532 15.1641 84.4011 14.8528 83.8978 14.6496C83.3945 14.4464 82.8524 14.3563 82.3102 14.3856V14.3874ZM106.576 12.5275C106.741 12.123 107.019 11.7744 107.378 11.5232C107.703 11.3034 108.087 11.1867 108.48 11.1885C109.049 11.1874 109.6 11.3924 110.029 11.7654C110.248 11.935 110.424 12.1525 110.544 12.4009C110.665 12.6493 110.726 12.9221 110.724 13.1979C110.719 13.5093 110.64 13.8152 110.495 14.0907L103.589 28.4831C103.386 28.9299 103.054 29.3056 102.634 29.5618C102.224 29.8097 101.752 29.9386 101.272 29.9338C100.793 29.932 100.323 29.8037 99.9098 29.5618C99.4749 29.3143 99.1291 28.937 98.921 28.4831L91.9756 14.0881C91.8469 13.8214 91.783 13.5284 91.7889 13.2326C91.7892 12.951 91.8552 12.6735 91.9816 12.4217C92.108 12.17 92.2914 11.9509 92.5173 11.7819C92.982 11.3926 93.571 11.1815 94.1781 11.1867C94.6011 11.1773 95.017 11.2964 95.3705 11.5281C95.7239 11.7599 95.9981 12.0934 96.1567 12.4843L101.383 23.978L106.576 12.5275ZM121.508 30.0454C119.8 30.0833 118.111 29.6864 116.6 28.8923C115.205 28.1359 114.068 26.9836 113.333 25.5818C112.534 24.0298 112.136 22.3039 112.175 20.5603C112.136 18.8237 112.533 17.1049 113.333 15.5612C114.072 14.1671 115.209 13.0218 116.6 12.2689C118.111 11.4747 119.801 11.0778 121.509 11.1158C123.217 11.077 124.906 11.4727 126.417 12.2654C127.806 13.0164 128.937 14.1643 129.666 15.5612C130.454 17.1099 130.845 18.8287 130.805 20.5646C130.843 22.3061 130.452 24.0304 129.666 25.5861C128.94 26.9879 127.808 28.1398 126.417 28.8923C124.906 29.6864 123.216 30.0833 121.508 30.0454ZM121.471 26.4373C122.126 26.4783 122.782 26.365 123.386 26.1065C123.989 25.848 124.523 25.4516 124.944 24.9495C125.827 23.6625 126.248 22.1157 126.138 20.5603C126.243 19.011 125.822 17.4716 124.944 16.1892C124.532 15.6852 124.006 15.2858 123.408 15.024C122.811 14.7621 122.16 14.6454 121.509 14.6832C120.855 14.6466 120.202 14.7638 119.602 15.0254C119.002 15.2871 118.472 15.6858 118.055 16.1892C117.164 17.4664 116.735 19.008 116.84 20.5603C116.73 22.1157 117.151 23.6625 118.035 24.9495C118.45 25.4491 118.977 25.8442 119.574 26.1027C120.171 26.3613 120.821 26.4759 121.471 26.4373ZM136.963 29.971C136.357 29.9938 135.764 29.7877 135.303 29.394C135.078 29.1828 134.904 28.9249 134.791 28.6388C134.678 28.3526 134.629 28.0452 134.649 27.7383V5.53286C134.628 5.22871 134.676 4.92375 134.789 4.6405C134.902 4.35724 135.078 4.10289 135.303 3.89621C135.769 3.51355 136.36 3.31498 136.963 3.33826C137.573 3.317 138.169 3.51507 138.643 3.89621C138.873 4.09985 139.053 4.35321 139.17 4.6369C139.286 4.92058 139.336 5.22706 139.315 5.53286V27.7392C139.335 28.0477 139.285 28.3566 139.168 28.6432C139.052 28.9297 138.873 29.1866 138.643 29.3949C138.174 29.7867 137.576 29.9919 136.963 29.971ZM156.861 12.5258C157.026 12.1213 157.305 11.7727 157.663 11.5215C157.988 11.3016 158.372 11.1849 158.765 11.1867C159.335 11.1856 159.885 11.3907 160.315 11.7637C160.533 11.9333 160.709 12.1507 160.83 12.3992C160.95 12.6476 161.012 12.9203 161.009 13.1962C161.006 13.5072 160.929 13.813 160.785 14.0889L153.875 28.4831C153.672 28.9299 153.339 29.3056 152.92 29.5618C152.509 29.8099 152.037 29.9387 151.557 29.9338C151.077 29.932 150.607 29.8037 150.194 29.5618C149.759 29.3145 149.413 28.9372 149.205 28.4831L142.259 14.0881C142.131 13.8214 142.067 13.5284 142.073 13.2326C142.073 12.951 142.139 12.6735 142.265 12.4217C142.392 12.17 142.575 11.9509 142.801 11.7819C143.266 11.3926 143.855 11.1815 144.462 11.1867C144.885 11.1773 145.301 11.2964 145.654 11.5281C146.008 11.7599 146.282 12.0934 146.44 12.4843L151.667 23.978L156.861 12.5258ZM177.916 24.7635C178.113 24.758 178.309 24.799 178.488 24.883C178.666 24.967 178.822 25.0917 178.943 25.247C179.22 25.6215 179.359 26.08 179.335 26.5446C179.308 26.964 179.165 27.3678 178.92 27.7103C178.676 28.0528 178.341 28.3205 177.952 28.4831C177.045 28.9786 176.08 29.3598 175.079 29.6181C174.082 29.8934 173.052 30.0373 172.018 30.0463C170.743 30.1128 169.468 29.9232 168.269 29.4887C167.07 29.0541 165.971 28.3836 165.037 27.5169C164.155 26.6006 163.471 25.5135 163.028 24.3231C162.585 23.1327 162.392 21.8644 162.461 20.5966C162.427 18.8816 162.812 17.1841 163.581 15.6495C164.287 14.2543 165.382 13.0918 166.735 12.3018C168.135 11.4965 169.729 11.0852 171.346 11.1115C172.849 11.0757 174.333 11.4487 175.639 12.1902C176.86 12.9127 177.844 13.9725 178.473 15.2412C179.174 16.6892 179.52 18.2831 179.48 19.8907C179.48 20.957 179.008 21.4902 178.062 21.4902H167.053C167.072 22.8812 167.588 24.2199 168.509 25.2661C168.995 25.6946 169.563 26.0223 170.178 26.2302C170.794 26.4381 171.444 26.5221 172.092 26.4771C172.807 26.489 173.518 26.3886 174.201 26.1796C174.906 25.9438 175.598 25.6707 176.273 25.3612C176.772 25.0472 177.332 24.8433 177.916 24.7635ZM171.458 14.383C170.896 14.3578 170.335 14.4507 169.811 14.6558C169.288 14.8609 168.813 15.1735 168.419 15.5733C167.592 16.5293 167.112 17.7346 167.056 18.9954H175.493C175.536 17.7531 175.14 16.5351 174.373 15.5543C174.003 15.1579 173.55 14.8477 173.046 14.6457C172.542 14.4437 172 14.3549 171.458 14.3856V14.383Z" fill="#333333"/>
<path d="M243.852 41.937C243.519 41.9386 243.187 41.897 242.864 41.8133C242.572 41.7401 242.292 41.6234 242.035 41.4673C241.924 41.3993 241.827 41.3127 241.747 41.2113C241.688 41.1275 241.658 41.0272 241.66 40.9249C241.658 40.8362 241.689 40.7497 241.747 40.6827C241.774 40.6514 241.808 40.6265 241.846 40.6099C241.885 40.5933 241.926 40.5853 241.968 40.5867C242.112 40.6092 242.248 40.6688 242.363 40.7597C242.575 40.8883 242.8 40.9955 243.034 41.0798C243.302 41.1656 243.582 41.2057 243.864 41.1983C244.194 41.2167 244.522 41.1426 244.812 40.9846C244.919 40.9212 245.006 40.8303 245.066 40.7215C245.126 40.6127 245.155 40.49 245.15 40.3661C245.157 40.2225 245.113 40.081 245.026 39.9665C244.908 39.8418 244.76 39.7487 244.596 39.6957C244.306 39.5926 244.008 39.5116 243.705 39.4535C243.193 39.374 242.706 39.177 242.283 38.8783C242.141 38.7587 242.029 38.6083 241.954 38.4387C241.88 38.2691 241.846 38.0848 241.854 37.8999C241.849 37.5933 241.944 37.2934 242.125 37.0453C242.319 36.7874 242.578 36.5856 242.876 36.4605C243.22 36.3132 243.591 36.2403 243.965 36.2468C244.253 36.246 244.54 36.2856 244.817 36.3645C245.076 36.436 245.322 36.5481 245.545 36.6966C245.65 36.7524 245.74 36.8327 245.807 36.9306C245.874 37.0286 245.916 37.1412 245.929 37.2589C245.933 37.3493 245.902 37.4377 245.842 37.5063C245.816 37.5379 245.784 37.5634 245.746 37.5809C245.709 37.5984 245.669 37.6075 245.628 37.6075C245.478 37.5816 245.337 37.5155 245.222 37.4164C245.031 37.2922 244.83 37.1865 244.619 37.1006C244.395 37.0196 244.158 36.9814 243.919 36.9882C243.617 36.9734 243.319 37.0563 243.068 37.2243C242.966 37.2945 242.883 37.3889 242.827 37.4988C242.771 37.6087 242.743 37.7308 242.746 37.8541C242.74 37.9968 242.782 38.1377 242.865 38.2537C242.973 38.3748 243.108 38.4676 243.26 38.5236C243.518 38.6239 243.784 38.7009 244.056 38.7537C244.465 38.8335 244.865 38.9579 245.247 39.1248C245.493 39.2278 245.704 39.3997 245.854 39.6196C245.983 39.8455 246.045 40.1025 246.035 40.3618C246.039 40.5873 245.985 40.81 245.88 41.0095C245.774 41.209 245.62 41.3789 245.432 41.5037C244.965 41.8122 244.411 41.964 243.852 41.937ZM249.698 41.937C249.218 41.9479 248.743 41.8283 248.326 41.591C247.929 41.3557 247.611 41.0083 247.413 40.5928C247.19 40.1237 247.079 39.6092 247.091 39.0902C247.08 38.5715 247.19 38.0573 247.413 37.5885C247.612 37.1741 247.93 36.8279 248.327 36.5937C248.744 36.3564 249.218 36.2368 249.699 36.2477C250.181 36.2374 250.656 36.3569 251.076 36.5937C251.475 36.8266 251.795 37.173 251.995 37.5885C252.218 38.0574 252.328 38.5716 252.316 39.0902C252.327 39.6089 252.217 40.1231 251.994 40.5919C251.794 41.008 251.474 41.3551 251.075 41.5884C250.656 41.8261 250.18 41.9465 249.698 41.937ZM249.698 41.1836C249.933 41.1973 250.169 41.156 250.386 41.0629C250.602 40.9698 250.794 40.8274 250.945 40.6473C251.265 40.1931 251.418 39.6434 251.38 39.0902C251.415 38.5396 251.259 37.9937 250.939 37.5435C250.79 37.362 250.6 37.2181 250.384 37.1234C250.168 37.0287 249.933 36.986 249.698 36.9985C249.463 36.986 249.228 37.0287 249.012 37.1234C248.796 37.2181 248.606 37.362 248.456 37.5435C248.135 37.9933 247.979 38.5392 248.013 39.0902C247.975 39.6434 248.128 40.1928 248.447 40.6473C248.598 40.8283 248.791 40.9713 249.008 41.0644C249.225 41.1576 249.462 41.1984 249.698 41.1836ZM254.145 41.9145C254.022 41.9193 253.903 41.8769 253.811 41.796C253.767 41.7532 253.732 41.7014 253.71 41.6441C253.688 41.5867 253.678 41.5252 253.682 41.4639V34.3239C253.678 34.2625 253.688 34.201 253.71 34.1437C253.732 34.0863 253.767 34.0345 253.811 33.9917C253.903 33.9108 254.022 33.8684 254.145 33.8732C254.263 33.8699 254.378 33.9124 254.466 33.9917C254.51 34.0345 254.545 34.0863 254.567 34.1437C254.589 34.201 254.599 34.2625 254.595 34.3239V41.4647C254.599 41.5261 254.589 41.5876 254.567 41.6449C254.545 41.7023 254.51 41.7541 254.466 41.7969C254.378 41.8759 254.263 41.918 254.145 41.9145ZM260.476 36.2693C260.537 36.2653 260.599 36.2743 260.656 36.2956C260.714 36.3169 260.766 36.3501 260.81 36.393C260.85 36.437 260.881 36.4884 260.901 36.5444C260.922 36.6003 260.931 36.6597 260.928 36.7191V41.4768C260.93 41.5345 260.92 41.592 260.9 41.646C260.88 41.7001 260.849 41.7496 260.81 41.7917C260.766 41.8346 260.714 41.8678 260.656 41.8891C260.599 41.9105 260.537 41.9194 260.476 41.9154C260.417 41.9184 260.359 41.9094 260.303 41.8891C260.248 41.8687 260.198 41.8373 260.155 41.7969C260.115 41.7562 260.084 41.7078 260.064 41.6547C260.043 41.6016 260.034 41.5449 260.036 41.4881V40.9258C259.875 41.2438 259.621 41.5062 259.309 41.6793C258.985 41.8547 258.622 41.9441 258.254 41.9388C257.983 41.9584 257.711 41.9199 257.456 41.8257C257.202 41.7315 256.97 41.5839 256.778 41.3929C256.415 40.9371 256.237 40.3625 256.278 39.7822V36.7191C256.275 36.6592 256.285 36.5994 256.306 36.5433C256.327 36.4873 256.36 36.4361 256.402 36.393C256.447 36.3506 256.5 36.3178 256.558 36.2965C256.617 36.2753 256.679 36.266 256.74 36.2693C256.802 36.2654 256.863 36.2744 256.92 36.2958C256.977 36.3171 257.029 36.3502 257.073 36.393C257.113 36.4369 257.145 36.4883 257.165 36.5443C257.186 36.6002 257.195 36.6597 257.192 36.7191V39.7554C257.161 40.1364 257.265 40.5163 257.485 40.8289C257.604 40.9515 257.749 41.0461 257.909 41.1059C258.069 41.1658 258.24 41.1894 258.411 41.1749C258.627 41.1839 258.842 41.1469 259.043 41.0663C259.243 40.9858 259.424 40.8635 259.573 40.7078C259.876 40.3709 260.034 39.9288 260.014 39.4769V36.7191C260.011 36.6592 260.021 36.5994 260.042 36.5433C260.063 36.4873 260.096 36.4361 260.138 36.393C260.183 36.3506 260.236 36.3178 260.294 36.2965C260.352 36.2753 260.414 36.266 260.476 36.2693ZM265.171 41.1948C265.435 41.2173 265.566 41.3373 265.566 41.5547C265.57 41.6106 265.559 41.6665 265.534 41.7168C265.509 41.7671 265.472 41.8102 265.426 41.8419C265.297 41.9128 265.148 41.9387 265.002 41.9154L264.697 41.8921C264.2 41.8914 263.722 41.6978 263.366 41.3523C263.05 40.9455 262.897 40.4366 262.937 39.9241V37.1006H262.18C262.072 37.1068 261.966 37.0726 261.882 37.0046C261.846 36.9729 261.818 36.9337 261.8 36.8899C261.781 36.8461 261.772 36.7987 261.774 36.7511C261.772 36.7011 261.78 36.6512 261.799 36.6047C261.818 36.5582 261.846 36.5161 261.882 36.4813C261.964 36.4099 262.071 36.3736 262.18 36.38H262.937V35.111C262.933 35.0501 262.942 34.9889 262.963 34.9317C262.984 34.8744 263.018 34.8223 263.061 34.7789C263.154 34.6963 263.275 34.6537 263.399 34.6603C263.459 34.6577 263.519 34.6668 263.575 34.6871C263.631 34.7074 263.683 34.7386 263.727 34.7789C263.77 34.8223 263.803 34.8744 263.824 34.9317C263.846 34.9889 263.855 35.0501 263.851 35.111V36.3818H265.104C265.209 36.3765 265.312 36.4129 265.391 36.483C265.427 36.5179 265.455 36.5599 265.474 36.6064C265.492 36.653 265.501 36.7029 265.499 36.7529C265.501 36.8004 265.492 36.8478 265.473 36.8916C265.455 36.9354 265.427 36.9746 265.391 37.0063C265.311 37.0732 265.208 37.1075 265.104 37.1023H263.851V39.9699C263.822 40.2892 263.912 40.6078 264.105 40.8644C264.309 41.0629 264.582 41.1741 264.867 41.1741L265.171 41.1948ZM266.932 41.9145C266.81 41.9191 266.691 41.8767 266.599 41.796C266.555 41.7532 266.521 41.7014 266.498 41.6441C266.476 41.5867 266.466 41.5252 266.47 41.4639V36.7191C266.466 36.6577 266.476 36.5963 266.498 36.5389C266.521 36.4816 266.555 36.4298 266.599 36.387C266.691 36.3067 266.81 36.2645 266.932 36.2693C266.992 36.2665 267.051 36.2755 267.107 36.2957C267.164 36.3158 267.215 36.3469 267.259 36.387C267.302 36.4305 267.336 36.4825 267.357 36.5398C267.378 36.597 267.387 36.6582 267.383 36.7191V41.4647C267.388 41.5265 267.38 41.5887 267.358 41.6469C267.337 41.7051 267.303 41.758 267.259 41.8021C267.169 41.8799 267.051 41.9201 266.932 41.9145ZM266.932 35.0885C266.77 35.0954 266.612 35.0389 266.492 34.9311C266.435 34.8778 266.391 34.8131 266.362 34.7413C266.333 34.6696 266.319 34.5924 266.323 34.515C266.32 34.4394 266.334 34.3641 266.363 34.2943C266.392 34.2244 266.436 34.1617 266.492 34.1102C266.612 34.0024 266.77 33.9459 266.932 33.9527C267.094 33.9459 267.252 34.0024 267.372 34.1102C267.429 34.1613 267.473 34.2239 267.503 34.2937C267.533 34.3636 267.548 34.4391 267.546 34.515C267.548 34.5927 267.534 34.6701 267.504 34.7419C267.474 34.8137 267.429 34.8782 267.372 34.9311C267.252 35.0389 267.094 35.0954 266.932 35.0885ZM271.367 41.937C270.886 41.9479 270.412 41.8283 269.995 41.591C269.598 41.3566 269.28 41.0101 269.081 40.5954C268.858 40.1252 268.749 39.6098 268.762 39.0902C268.751 38.5716 268.861 38.0574 269.083 37.5885C269.283 37.1741 269.601 36.8279 269.998 36.5937C270.415 36.3564 270.889 36.2368 271.369 36.2477C271.851 36.2374 272.327 36.3569 272.746 36.5937C273.146 36.8265 273.466 37.1729 273.666 37.5885C273.889 38.0574 273.999 38.5716 273.988 39.0902C273.999 39.6088 273.889 40.123 273.666 40.5919C273.466 41.0078 273.146 41.3546 272.746 41.5876C272.326 41.826 271.85 41.9467 271.367 41.937ZM271.367 41.1836C271.602 41.1975 271.838 41.1562 272.055 41.0631C272.272 40.97 272.463 40.8275 272.615 40.6473C272.934 40.1931 273.088 39.6434 273.049 39.0902C273.084 38.5396 272.929 37.9937 272.609 37.5435C272.459 37.362 272.269 37.2181 272.053 37.1234C271.838 37.0287 271.603 36.986 271.367 36.9985C271.132 36.986 270.897 37.0287 270.681 37.1234C270.466 37.2181 270.276 37.362 270.126 37.5435C269.806 37.9937 269.651 38.5396 269.686 39.0902C269.649 39.6416 269.802 40.189 270.12 40.6421C270.27 40.8235 270.462 40.967 270.678 41.0611C270.895 41.1552 271.131 41.1971 271.367 41.1836ZM278.116 36.2468C279.433 36.2468 280.091 36.9703 280.091 38.4172V41.4647C280.095 41.5252 280.086 41.5858 280.066 41.6429C280.045 41.7 280.013 41.7524 279.972 41.7969C279.927 41.8379 279.875 41.8696 279.818 41.89C279.761 41.9103 279.7 41.919 279.639 41.9154C279.515 41.9221 279.394 41.8795 279.301 41.7969C279.258 41.7531 279.226 41.7009 279.205 41.6436C279.184 41.5864 279.176 41.5254 279.18 41.4647V38.4734C279.213 38.0786 279.106 37.6847 278.878 37.3601C278.754 37.2358 278.605 37.1402 278.44 37.0804C278.274 37.0206 278.098 36.9979 277.923 37.0141C277.701 37.0036 277.479 37.0391 277.271 37.1185C277.063 37.1978 276.874 37.3193 276.715 37.4752C276.561 37.6428 276.441 37.8396 276.363 38.0539C276.286 38.2683 276.252 38.4959 276.264 38.7234V41.4647C276.268 41.5252 276.259 41.5858 276.239 41.6429C276.218 41.7 276.186 41.7524 276.145 41.7969C276.1 41.8379 276.048 41.8696 275.991 41.89C275.934 41.9103 275.873 41.919 275.813 41.9154C275.688 41.922 275.567 41.8794 275.474 41.7969C275.431 41.7534 275.398 41.7013 275.376 41.6441C275.355 41.5868 275.346 41.5257 275.35 41.4647V36.7191C275.347 36.6592 275.357 36.5994 275.378 36.5433C275.399 36.4873 275.432 36.4361 275.474 36.393C275.519 36.3506 275.572 36.3178 275.63 36.2965C275.689 36.2753 275.751 36.266 275.813 36.2693C275.872 36.2663 275.931 36.2757 275.987 36.297C276.042 36.3183 276.093 36.351 276.135 36.393C276.174 36.4352 276.205 36.4847 276.225 36.5387C276.245 36.5927 276.255 36.6502 276.253 36.7079V37.2814C276.422 36.9552 276.685 36.6868 277.009 36.5107C277.35 36.3303 277.73 36.2395 278.116 36.2468ZM283.613 41.937C283.28 41.9386 282.948 41.897 282.626 41.8133C282.333 41.7401 282.054 41.6234 281.796 41.4673C281.686 41.4004 281.588 41.315 281.508 41.2147C281.449 41.1309 281.419 41.0306 281.421 40.9284C281.418 40.8396 281.449 40.7531 281.508 40.6862C281.535 40.6548 281.569 40.6299 281.607 40.6133C281.645 40.5967 281.687 40.5888 281.728 40.5902C281.873 40.6127 282.009 40.6723 282.123 40.7632C282.336 40.8918 282.561 40.999 282.795 41.0832C283.063 41.1689 283.343 41.209 283.624 41.2018C283.954 41.2201 284.283 41.1461 284.572 40.9881C284.679 40.9246 284.767 40.8338 284.827 40.725C284.886 40.6162 284.915 40.4934 284.911 40.3696C284.918 40.226 284.874 40.0845 284.787 39.9699C284.669 39.8457 284.521 39.7529 284.358 39.7001C284.067 39.5969 283.769 39.516 283.466 39.4578C282.954 39.3769 282.467 39.1785 282.045 38.8783C281.902 38.7592 281.789 38.6091 281.714 38.4394C281.639 38.2698 281.603 38.0852 281.611 37.8999C281.606 37.5933 281.701 37.2934 281.882 37.0453C282.076 36.7874 282.335 36.5856 282.633 36.4605C282.977 36.3133 283.348 36.2405 283.722 36.2468C284.01 36.2459 284.297 36.2855 284.574 36.3645C284.833 36.4361 285.078 36.5482 285.302 36.6966C285.407 36.7524 285.496 36.8327 285.563 36.9306C285.63 37.0286 285.672 37.1412 285.685 37.2589C285.689 37.3493 285.658 37.4377 285.599 37.5063C285.573 37.5379 285.54 37.5634 285.503 37.5809C285.466 37.5984 285.425 37.6075 285.384 37.6075C285.234 37.5816 285.093 37.5155 284.978 37.4164C284.789 37.2925 284.589 37.1868 284.381 37.1006C284.156 37.0196 283.919 36.9814 283.681 36.9882C283.378 36.9731 283.078 37.0563 282.826 37.2252C282.725 37.2954 282.642 37.3897 282.586 37.4996C282.53 37.6096 282.502 37.7317 282.505 37.8549C282.498 37.9977 282.54 38.1386 282.624 38.2546C282.731 38.3757 282.867 38.4684 283.019 38.5245C283.277 38.6248 283.544 38.7018 283.815 38.7546C284.225 38.8343 284.624 38.9588 285.006 39.1257C285.253 39.2287 285.464 39.4006 285.614 39.6205C285.742 39.8463 285.805 40.1033 285.795 40.3627C285.798 40.5878 285.745 40.8102 285.64 41.0096C285.535 41.2089 285.381 41.3788 285.193 41.5037C284.726 41.8122 284.173 41.964 283.613 41.937Z" fill="#333333"/>
<path opacity="0.5" d="M200.644 3.33815C201.272 3.31358 201.885 3.52617 202.362 3.93329C202.582 4.12809 202.757 4.3692 202.873 4.63933C202.99 4.90945 203.044 5.20186 203.034 5.49555V27.7391C203.048 28.0353 202.998 28.3311 202.889 28.6068C202.779 28.8826 202.612 29.132 202.399 29.3385C201.939 29.749 201.336 29.9628 200.719 29.9337C200.102 29.9628 199.499 29.749 199.039 29.3385C198.826 29.132 198.659 28.8826 198.549 28.6068C198.44 28.3311 198.39 28.0353 198.404 27.7391V26.8066C197.866 27.8145 197.042 28.6423 196.034 29.1872C194.952 29.7699 193.736 30.0646 192.506 30.0427C191.02 30.0665 189.559 29.6534 188.307 28.855C187.046 28.0285 186.049 26.8604 185.432 25.4883C184.722 23.9169 184.371 22.2079 184.405 20.4849C184.367 18.7796 184.718 17.0881 185.432 15.5378C186.052 14.198 187.043 13.0624 188.288 12.2645C189.554 11.4829 191.019 11.0825 192.507 11.1114C193.727 11.0879 194.933 11.3692 196.016 11.9297C197.011 12.4505 197.829 13.2528 198.368 14.2359V5.42116C198.357 5.14095 198.406 4.86167 198.513 4.60196C198.619 4.34225 198.779 4.1081 198.983 3.91513C199.44 3.51385 200.036 3.30673 200.644 3.33815ZM193.738 26.4346C194.393 26.4711 195.048 26.3521 195.649 26.0874C196.249 25.8227 196.778 25.42 197.192 24.9122C198.078 23.6397 198.506 22.1059 198.407 20.5602C198.509 19.0198 198.08 17.491 197.192 16.2263C196.781 15.7255 196.258 15.3282 195.664 15.0665C195.071 14.8049 194.423 14.6863 193.775 14.7203C193.12 14.6844 192.466 14.8001 191.864 15.0582C191.261 15.3164 190.727 15.7099 190.303 16.2082C189.405 17.4476 188.969 18.9605 189.071 20.4858C188.975 22.0453 189.409 23.5916 190.303 24.875C190.71 25.3892 191.233 25.7993 191.831 26.071C192.428 26.3428 193.082 26.4683 193.738 26.4372V26.4346ZM210.16 29.9709C209.554 29.9936 208.961 29.7876 208.5 29.3939C208.275 29.1827 208.1 28.9248 207.987 28.6387C207.874 28.3525 207.826 28.0451 207.846 27.7382V13.3786C207.825 13.0745 207.873 12.7695 207.986 12.4863C208.099 12.203 208.275 11.9487 208.5 11.742C208.966 11.3593 209.557 11.1607 210.16 11.184C210.769 11.1628 211.366 11.3608 211.84 11.742C212.07 11.9456 212.25 12.199 212.367 12.4827C212.483 12.7663 212.533 13.0728 212.512 13.3786V27.7382C212.532 28.0467 212.482 28.3556 212.365 28.6422C212.249 28.9288 212.07 29.1856 211.84 29.3939C211.371 29.7861 210.773 29.9915 210.16 29.9709ZM210.16 7.87613C209.424 7.91382 208.701 7.6658 208.144 7.1841C207.897 6.95459 207.703 6.67468 207.574 6.36343C207.445 6.05219 207.385 5.71693 207.398 5.3805C207.384 5.0466 207.443 4.71366 207.572 4.40517C207.701 4.09667 207.897 3.82014 208.144 3.59506C208.708 3.12809 209.428 2.89105 210.16 2.93158C210.886 2.89903 211.599 3.1378 212.157 3.60112C212.41 3.82323 212.61 4.09876 212.742 4.40763C212.875 4.71651 212.937 5.05094 212.923 5.38655C212.936 5.72299 212.876 6.05825 212.747 6.36949C212.618 6.68073 212.423 6.96065 212.176 7.19016C211.618 7.66967 210.896 7.91549 210.16 7.87613ZM232.783 11.1866C233.4 11.1575 234.003 11.3713 234.463 11.7818C234.677 11.9883 234.844 12.2377 234.953 12.5135C235.062 12.7892 235.112 13.085 235.098 13.3812V28.0739C235.098 30.9256 234.301 33.083 232.709 34.5461C231.116 36.0091 228.765 36.7407 225.656 36.7407C223.298 36.8232 220.957 36.2979 218.862 35.2156C218.474 35.0427 218.141 34.7678 217.897 34.4206C217.654 34.0733 217.51 33.6667 217.481 33.2442C217.456 32.7781 217.594 32.3179 217.872 31.9423C217.993 31.787 218.149 31.6623 218.328 31.5783C218.506 31.4942 218.702 31.4533 218.899 31.4588C219.18 31.4697 219.458 31.5261 219.721 31.6257C220.044 31.737 220.38 31.8673 220.729 32.0167C221.513 32.3494 222.317 32.6351 223.136 32.8722C223.934 33.0818 224.757 33.1819 225.582 33.1698C228.842 33.1698 230.472 31.5839 230.472 28.4121V26.0281C229.932 27.0369 229.1 27.8599 228.083 28.3896C226.977 28.9628 225.745 29.2512 224.499 29.2287C223.008 29.2559 221.539 28.8624 220.262 28.0938C219.017 27.3243 218.014 26.222 217.366 24.9122C216.647 23.4426 216.289 21.823 216.324 20.1882C216.292 18.5491 216.644 16.9252 217.351 15.4452C217.986 14.1228 218.991 13.0113 220.245 12.2446C221.529 11.4775 223.003 11.0843 224.499 11.1096C225.745 11.0865 226.977 11.3744 228.083 11.947C229.1 12.4767 229.932 13.2997 230.472 14.3085V13.3414C230.46 13.0511 230.511 12.7615 230.62 12.4922C230.73 12.2228 230.896 11.9797 231.107 11.7792C231.567 11.3697 232.17 11.1568 232.787 11.1866H232.783ZM225.731 25.6189C226.385 25.6542 227.038 25.5421 227.643 25.2909C228.247 25.0397 228.787 24.656 229.222 24.1682C230.11 23.0373 230.555 21.6227 230.472 20.1891C230.558 18.7432 230.114 17.3154 229.222 16.1718C228.787 15.6841 228.247 15.3003 227.643 15.0491C227.038 14.798 226.385 14.6859 225.731 14.7212C225.08 14.6895 224.431 14.8034 223.83 15.0544C223.229 15.3054 222.692 15.6872 222.258 16.1718C221.355 17.3102 220.903 18.7401 220.989 20.1891C220.907 21.6258 221.359 23.0425 222.258 24.1682C222.692 24.6528 223.229 25.0347 223.83 25.2857C224.431 25.5367 225.08 25.6505 225.731 25.6189ZM242.232 29.9709C241.625 29.9936 241.032 29.7876 240.571 29.3939C240.346 29.1827 240.172 28.9248 240.059 28.6387C239.946 28.3525 239.897 28.0451 239.917 27.7382V13.3786C239.896 13.0745 239.944 12.7695 240.057 12.4863C240.17 12.203 240.346 11.9487 240.571 11.742C241.037 11.3593 241.628 11.1607 242.232 11.184C242.841 11.1628 243.437 11.3608 243.911 11.742C244.141 11.9456 244.321 12.199 244.438 12.4827C244.554 12.7663 244.604 13.0728 244.583 13.3786V27.7382C244.603 28.0467 244.553 28.3556 244.436 28.6422C244.32 28.9288 244.141 29.1856 243.911 29.3939C243.442 29.7861 242.844 29.9915 242.232 29.9709ZM242.232 7.87613C241.495 7.91382 240.773 7.6658 240.216 7.1841C239.968 6.95459 239.774 6.67468 239.645 6.36343C239.516 6.05219 239.456 5.71693 239.469 5.3805C239.455 5.0466 239.514 4.71366 239.643 4.40517C239.772 4.09667 239.968 3.82014 240.216 3.59506C240.779 3.12809 241.5 2.89105 242.232 2.93158C242.958 2.89903 243.67 3.1378 244.228 3.60112C244.481 3.82323 244.681 4.09876 244.814 4.40763C244.946 4.71651 245.008 5.05094 244.994 5.38655C245.007 5.72299 244.947 6.05825 244.818 6.36949C244.689 6.68073 244.495 6.96065 244.247 7.19016C243.69 7.66967 242.967 7.91549 242.232 7.87613ZM258.881 26.5116C260.126 26.586 260.748 27.1439 260.748 28.1855C260.76 28.4561 260.698 28.7249 260.57 28.9637C260.442 29.2026 260.252 29.4029 260.02 29.5436C259.386 29.8848 258.662 30.0214 257.947 29.9346L256.94 29.8593C252.759 29.5617 250.668 27.3299 250.668 23.1639V15.0551H248.802C248.249 15.0914 247.7 14.9335 247.252 14.6087C247.068 14.4477 246.923 14.2465 246.829 14.0207C246.735 13.795 246.694 13.5507 246.71 13.3068C246.694 13.063 246.735 12.8187 246.829 12.5929C246.923 12.3672 247.068 12.166 247.252 12.0049C247.7 11.6802 248.249 11.5223 248.802 11.5586H250.668V8.13651C250.654 7.84031 250.704 7.54453 250.813 7.26878C250.923 6.99302 251.09 6.7436 251.303 6.53705C251.775 6.12232 252.392 5.90864 253.02 5.94191C253.637 5.91282 254.24 6.12659 254.7 6.53705C254.914 6.7436 255.081 6.99302 255.19 7.26878C255.3 7.54453 255.349 7.84031 255.335 8.13651V11.5586H258.508C259.061 11.5223 259.609 11.6802 260.058 12.0049C260.242 12.1661 260.387 12.3673 260.481 12.593C260.574 12.8188 260.615 13.063 260.599 13.3068C260.615 13.5506 260.574 13.7949 260.481 14.0206C260.387 14.2464 260.242 14.4476 260.058 14.6087C259.609 14.9335 259.061 15.0914 258.508 15.0551H255.335V23.4987C255.335 25.3337 256.181 26.3141 257.873 26.4398L258.881 26.5116ZM271.089 11.114C273.627 11.114 275.512 11.7402 276.744 12.9928C277.976 14.2454 278.592 16.1485 278.592 18.7021V27.7763C278.608 28.0667 278.563 28.3573 278.461 28.6295C278.358 28.9017 278.199 29.1496 277.995 29.3576C277.773 29.5574 277.514 29.7112 277.232 29.8103C276.95 29.9093 276.651 29.9516 276.352 29.9346C276.062 29.9457 275.772 29.8987 275.499 29.7965C275.227 29.6943 274.978 29.5389 274.766 29.3394C274.56 29.136 274.399 28.892 274.293 28.623C274.187 28.354 274.139 28.0659 274.151 27.7772V26.9588C273.744 27.9074 273.045 28.7022 272.154 29.2278C271.199 29.7858 270.107 30.0691 269 30.0461C267.849 30.0617 266.711 29.8068 265.677 29.3022C264.724 28.8426 263.911 28.136 263.326 27.2564C262.755 26.3962 262.456 25.3858 262.467 24.3551C262.401 23.2105 262.766 22.0825 263.491 21.1925C264.405 20.3035 265.572 19.7186 266.833 19.5187C268.937 19.1224 271.076 18.9484 273.217 18.9996H274.15V18.1441C274.234 17.1914 273.955 16.2421 273.369 15.485C273.026 15.1785 272.624 14.9459 272.187 14.8018C271.75 14.6576 271.288 14.6052 270.83 14.6476C270.085 14.6508 269.343 14.7571 268.627 14.9634C267.881 15.1739 266.997 15.4775 265.977 15.8743C265.542 16.1294 265.059 16.2939 264.558 16.3578C264.35 16.3637 264.143 16.3233 263.953 16.2397C263.762 16.156 263.593 16.0312 263.457 15.8743C263.16 15.5211 263.007 15.0698 263.028 14.6096C263.018 14.2199 263.129 13.8367 263.346 13.5118C263.627 13.1426 263.992 12.8436 264.409 12.6382C265.392 12.1264 266.441 11.751 267.526 11.5223C268.694 11.2537 269.889 11.1161 271.089 11.1122V11.114ZM269.931 26.6976C270.498 26.7169 271.062 26.6156 271.586 26.4007C272.11 26.1858 272.582 25.862 272.97 25.4511C273.771 24.5745 274.194 23.4187 274.146 22.234V21.4555H273.474C272.176 21.4323 270.878 21.5069 269.591 21.6786C268.87 21.7435 268.183 22.0138 267.613 22.4572C267.41 22.6546 267.252 22.8927 267.149 23.1557C267.046 23.4186 267.001 23.7004 267.015 23.9822C267.004 24.3489 267.074 24.7135 267.219 25.0507C267.364 25.3879 267.581 25.6896 267.855 25.9346C268.422 26.4468 269.166 26.7202 269.931 26.6976ZM285.648 29.9709C285.041 29.9936 284.448 29.7876 283.987 29.3939C283.763 29.1827 283.588 28.9248 283.475 28.6387C283.362 28.3525 283.314 28.0451 283.333 27.7382V5.53275C283.313 5.22859 283.36 4.92364 283.474 4.64038C283.587 4.35712 283.762 4.10277 283.987 3.8961C284.453 3.51343 285.044 3.31486 285.648 3.33815C286.257 3.31688 286.853 3.51496 287.328 3.8961C287.558 4.09973 287.738 4.3531 287.854 4.63678C287.971 4.92046 288.021 5.22694 288 5.53275V27.7391C288.019 28.0476 287.969 28.3565 287.853 28.6431C287.737 28.9296 287.557 29.1865 287.328 29.3948C286.858 29.7866 286.26 29.9918 285.648 29.9709Z" fill="#333333"/>
</g>
<defs>
<clipPath id="clip0_1418_2003">
<rect width="288" height="48" fill="white" transform="translate(0 0.5)"/>
</clipPath>
</defs>
</svg>
