<svg width="69" height="69" viewBox="0 0 69 69" fill="none" xmlns="http://www.w3.org/2000/svg">
<rect width="69" height="69" rx="8" fill="#333333"/>
<g clip-path="url(#clip0_1426_292)">
<path d="M56.7994 24.9657L54.0947 29.0338C55.3991 31.6353 56.0376 34.5198 55.9532 37.4288C55.8688 40.3378 55.064 43.1804 53.6109 45.7019H23.1334C21.2449 42.4257 20.4623 38.6281 20.9018 34.8722C21.3412 31.1162 22.9793 27.6019 25.5731 24.8501C28.1669 22.0984 31.5784 20.2557 35.3019 19.5952C39.0253 18.9348 42.8624 19.4917 46.2444 21.1835L50.3125 18.4788C46.1707 15.823 41.2579 14.6329 36.3599 15.0989C31.4619 15.5649 26.8616 17.6601 23.295 21.0494C19.7284 24.4387 17.4016 28.9262 16.6866 33.7941C15.9716 38.6621 16.9098 43.6291 19.3512 47.9008C19.735 48.5655 20.286 49.1182 20.9495 49.504C21.613 49.8897 22.3659 50.0951 23.1334 50.0998H53.5889C54.3639 50.1029 55.1259 49.9011 55.7978 49.515C56.4697 49.1288 57.0276 48.572 57.4151 47.9008C59.4412 44.3911 60.458 40.3898 60.3532 36.3386C60.2484 32.2875 59.0262 28.344 56.8214 24.9437L56.7994 24.9657ZM35.2717 40.0066C35.6801 40.4155 36.1651 40.7399 36.699 40.9612C37.2329 41.1825 37.8052 41.2964 38.3832 41.2964C38.9611 41.2964 39.5334 41.1825 40.0673 40.9612C40.6012 40.7399 41.0862 40.4155 41.4947 40.0066L53.9408 21.3375L35.2717 33.7835C34.8628 34.192 34.5384 34.677 34.317 35.2109C34.0957 35.7448 33.9818 36.3171 33.9818 36.8951C33.9818 37.473 34.0957 38.0453 34.317 38.5792C34.5384 39.1131 34.8628 39.5981 35.2717 40.0066Z" fill="#83808C"/>
<path d="M48.8336 28.9488L46.1289 33.0168C47.4332 35.6183 48.0718 38.5028 47.9874 41.4118C47.903 44.3208 47.0982 47.1634 45.6451 49.6849H15.1676C13.2791 46.4087 12.4965 42.6111 12.936 38.8552C13.3754 35.0993 15.0135 31.5849 17.6073 28.8331C20.2011 26.0814 23.6126 24.2387 27.336 23.5782C31.0595 22.9178 34.8966 23.4748 38.2786 25.1666L42.3467 22.4618C38.2049 19.806 33.2921 18.6159 28.3941 19.0819C23.496 19.5479 18.8958 21.6432 15.3292 25.0324C11.7626 28.4217 9.43573 32.9092 8.72075 37.7771C8.00578 42.6451 8.94402 47.6121 11.3854 51.8838C11.7691 52.5485 12.3202 53.1012 12.9837 53.487C13.6472 53.8728 14.4001 54.0782 15.1676 54.0828H45.6231C46.3981 54.0859 47.1601 53.8841 47.832 53.498C48.5039 53.1118 49.0618 52.555 49.4493 51.8838C51.4754 48.3741 52.4921 44.3728 52.3874 40.3216C52.2826 36.2705 51.0603 32.327 48.8556 28.9268L48.8336 28.9488ZM27.3058 43.9896C27.7143 44.3985 28.1993 44.7229 28.7332 44.9442C29.2671 45.1655 29.8394 45.2794 30.4174 45.2794C30.9953 45.2794 31.5676 45.1655 32.1015 44.9442C32.6354 44.7229 33.1204 44.3985 33.5289 43.9896L45.9749 25.3205L27.3058 37.7666C26.8969 38.175 26.5725 38.66 26.3512 39.1939C26.1299 39.7278 26.016 40.3001 26.016 40.8781C26.016 41.456 26.1299 42.0283 26.3512 42.5622C26.5725 43.0961 26.8969 43.5812 27.3058 43.9896Z" fill="white"/>
</g>
<defs>
<clipPath id="clip0_1426_292">
<rect width="53" height="53" fill="white" transform="translate(8 8)"/>
</clipPath>
</defs>
</svg>
