<svg width="69" height="69" viewBox="0 0 69 69" fill="none" xmlns="http://www.w3.org/2000/svg">
<rect width="69" height="69" rx="8" fill="#333333"/>
<path d="M39.3839 33.149C44.4366 33.149 48.529 29.0566 48.529 24.0039C48.529 18.9513 44.4366 14.8588 39.3839 14.8588C34.3313 14.8588 30.2388 18.9513 30.2388 24.0039C30.2388 29.0566 34.3313 33.149 39.3839 33.149ZM39.3839 30.8627C33.2796 30.8627 21.0938 38.9146 21.0938 44.9961V47.2823C21.0938 48.5398 22.1226 49.5686 23.38 49.5686H55.3879C56.6453 49.5686 57.6741 48.5398 57.6741 47.2823V44.9961C57.6741 38.9146 45.4883 30.8627 39.3839 30.8627Z" fill="#83808C"/>
<path d="M29.4074 38.1372C34.46 38.1372 38.5525 34.0448 38.5525 28.9921C38.5525 23.9395 34.46 19.847 29.4074 19.847C24.3547 19.847 20.2623 23.9395 20.2623 28.9921C20.2623 34.0448 24.3547 38.1372 29.4074 38.1372ZM29.4074 35.851C23.303 35.851 11.1172 43.9028 11.1172 49.9843V52.2706C11.1172 53.528 12.146 54.5568 13.4035 54.5568H45.4113C46.6688 54.5568 47.6976 53.528 47.6976 52.2706V49.9843C47.6976 43.9028 35.5117 35.851 29.4074 35.851Z" fill="white"/>
</svg>
