<svg width="69" height="69" viewBox="0 0 69 69" fill="none" xmlns="http://www.w3.org/2000/svg">
<rect width="69" height="69" rx="8" fill="#333333"/>
<g clip-path="url(#clip0_1426_287)">
<path d="M18.0748 24.8096L27.9252 51.7891C21.0348 48.4506 16.2891 41.3855 16.2891 33.214C16.2891 30.2152 16.9296 27.3814 18.0748 24.8096ZM50.8675 32.1756C50.8675 29.6232 49.9552 27.8569 49.1692 26.4788C48.121 24.7805 47.1408 23.3345 47.1408 21.6361C47.1408 19.7339 48.5772 17.9677 50.6055 17.9677C50.6928 17.9677 50.7802 17.9774 50.8772 17.9871C47.1991 14.6195 42.3078 12.5621 36.9313 12.5621C29.7206 12.5621 23.3736 16.2596 19.6761 21.869C20.1613 21.8884 20.6175 21.8981 21.0057 21.8981C23.1601 21.8981 26.5083 21.6361 26.5083 21.6361C27.6244 21.5682 27.7505 23.2083 26.6442 23.3345C26.6442 23.3345 25.5281 23.4606 24.2859 23.5285L31.8072 45.8885L36.3296 32.3406L33.1173 23.5285C32.0013 23.4606 30.9531 23.3345 30.9531 23.3345C29.8371 23.2665 29.9729 21.5682 31.0793 21.6361C31.0793 21.6361 34.4857 21.8981 36.514 21.8981C38.6685 21.8981 42.0167 21.6361 42.0167 21.6361C43.1327 21.5682 43.2589 23.2083 42.1525 23.3345C42.1525 23.3345 41.0365 23.4606 39.7943 23.5285L47.2573 45.7236L49.3147 38.8428C50.1882 35.9896 50.8675 33.9419 50.8675 32.1756ZM37.2904 35.0191L31.0987 53.0216C32.9523 53.5651 34.903 53.8659 36.9313 53.8659C39.3381 53.8659 41.6382 53.4486 43.783 52.6916C43.7247 52.6043 43.6762 52.5073 43.6374 52.4102L37.2904 35.0191ZM55.0503 23.3053C55.1376 23.9653 55.1862 24.664 55.1862 25.4307C55.1862 27.527 54.798 29.8755 53.614 32.8258L47.3058 51.0612C53.449 47.4801 57.5736 40.8323 57.5736 33.214C57.5736 29.6232 56.6613 26.2459 55.0503 23.3053ZM60.9994 33.214C60.9994 46.4902 50.1979 57.282 36.9313 57.282C23.6551 57.282 12.8633 46.4805 12.8633 33.214C12.8633 19.9378 23.6551 9.14595 36.9313 9.14595C50.1979 9.14595 60.9994 19.9378 60.9994 33.214ZM59.893 33.214C59.893 20.5492 49.5865 10.2523 36.9313 10.2523C24.2665 10.2523 13.9696 20.5492 13.9696 33.214C13.9696 45.8788 24.2762 56.1757 36.9313 56.1757C49.5962 56.1757 59.893 45.8788 59.893 33.214Z" fill="#83808C"/>
<path d="M13.1695 27.2624L23.0199 54.2419C16.1295 50.9034 11.3838 43.8383 11.3838 35.6668C11.3838 32.668 12.0243 29.8342 13.1695 27.2624ZM45.9622 34.6284C45.9622 32.076 45.05 30.3097 44.2639 28.9316C43.2158 27.2332 42.2356 25.7872 42.2356 24.0889C42.2356 22.1867 43.6719 20.4204 45.7002 20.4204C45.7875 20.4204 45.8749 20.4301 45.9719 20.4398C42.2938 17.0723 37.4025 15.0148 32.0261 15.0148C24.8153 15.0148 18.4684 18.7124 14.7708 24.3218C15.2561 24.3412 15.7122 24.3509 16.1004 24.3509C18.2549 24.3509 21.603 24.0889 21.603 24.0889C22.7191 24.0209 22.8453 25.6611 21.7389 25.7872C21.7389 25.7872 20.6228 25.9134 19.3806 25.9813L26.9019 48.3413L31.4244 34.7933L28.212 25.9813C27.096 25.9134 26.0479 25.7872 26.0479 25.7872C24.9318 25.7193 25.0677 24.0209 26.174 24.0889C26.174 24.0889 29.5804 24.3509 31.6087 24.3509C33.7632 24.3509 37.1114 24.0889 37.1114 24.0889C38.2275 24.0209 38.3536 25.6611 37.2473 25.7872C37.2473 25.7872 36.1312 25.9134 34.889 25.9813L42.352 48.1763L44.4095 41.2956C45.2829 38.4424 45.9622 36.3946 45.9622 34.6284ZM32.3851 37.4719L26.1934 55.4744C28.0471 56.0179 29.9977 56.3187 32.0261 56.3187C34.4329 56.3187 36.7329 55.9014 38.8777 55.1444C38.8195 55.0571 38.7709 54.96 38.7321 54.863L32.3851 37.4719ZM50.145 25.7581C50.2324 26.418 50.2809 27.1168 50.2809 27.8835C50.2809 29.9797 49.8927 32.3283 48.7087 35.2786L42.4005 53.514C48.5437 49.9329 52.6683 43.2851 52.6683 35.6668C52.6683 32.076 51.756 28.6987 50.145 25.7581ZM56.0941 35.6668C56.0941 48.943 45.2926 59.7348 32.0261 59.7348C18.7498 59.7348 7.95801 48.9333 7.95801 35.6668C7.95801 22.3905 18.7498 11.5987 32.0261 11.5987C45.2926 11.5987 56.0941 22.3905 56.0941 35.6668ZM54.9877 35.6668C54.9877 23.0019 44.6812 12.7051 32.0261 12.7051C19.3612 12.7051 9.06436 23.0019 9.06436 35.6668C9.06436 48.3316 19.3709 58.6285 32.0261 58.6285C44.6909 58.6285 54.9877 48.3316 54.9877 35.6668Z" fill="white"/>
</g>
<defs>
<clipPath id="clip0_1426_287">
<rect width="53" height="53" fill="white" transform="translate(8 8)"/>
</clipPath>
</defs>
</svg>
